<svg xmlns="http://www.w3.org/2000/svg" xmlns:xlink="http://www.w3.org/1999/xlink" width="199" height="176" viewBox="0 0 199 176">
    <defs>
        <filter id="h0bdbkvc2b" width="114.2%" height="116.2%" x="-7.1%" y="-5.6%" filterUnits="objectBoundingBox">
            <feMorphology in="SourceAlpha" radius="1" result="shadowSpreadOuter1"/>
            <feOffset dy="4" in="shadowSpreadOuter1" result="shadowOffsetOuter1"/>
            <feGaussianBlur in="shadowOffsetOuter1" result="shadowBlurOuter1" stdDeviation="4"/>
            <feColorMatrix in="shadowBlurOuter1" result="shadowMatrixOuter1" values="0 0 0 0 0.0352941176 0 0 0 0 0.117647059 0 0 0 0 0.258823529 0 0 0 0.25 0"/>
            <feOffset in="SourceAlpha" result="shadowOffsetOuter2"/>
            <feGaussianBlur in="shadowOffsetOuter2" result="shadowBlurOuter2" stdDeviation=".5"/>
            <feColorMatrix in="shadowBlurOuter2" result="shadowMatrixOuter2" values="0 0 0 0 0.0352941176 0 0 0 0 0.117647059 0 0 0 0 0.258823529 0 0 0 0.31 0"/>
            <feMerge>
                <feMergeNode in="shadowMatrixOuter1"/>
                <feMergeNode in="shadowMatrixOuter2"/>
            </feMerge>
        </filter>
        <filter id="xjsy3egedd">
            <feColorMatrix in="SourceGraphic" values="0 0 0 0 1.000000 0 0 0 0 1.000000 0 0 0 0 1.000000 0 0 0 1.000000 0"/>
        </filter>
        <rect id="vcjr8u9gha" width="183" height="160" x="0" y="0" rx="8"/>
    </defs>
    <g fill="none" fill-rule="evenodd">
        <g>
            <g>
                <g>
                    <g transform="translate(-8 -196) translate(16 200)">
                        <mask id="iz56sosg5c" fill="#fff">
                            <use xlink:href="#vcjr8u9gha"/>
                        </mask>
                        <g>
                            <use fill="#000" filter="url(#h0bdbkvc2b)" xlink:href="#vcjr8u9gha"/>
                            <use fill="#128D9A" xlink:href="#vcjr8u9gha"/>
                        </g>
                        <g fill="#0A575F" mask="url(#iz56sosg5c)" opacity=".3">
                            <g>
                                <path d="M49.373 90.784c-9.97-7.21-18.493-17.042-29.909-21.632C-5.613 59.069-1.899 83.682 5.567 92.934c8.358 10.356 17.803 19.785 26.705 29.678" transform="matrix(1 0 0 -1 137.327 99.849)"/>
                                <path d="M90.824 43.94c-18.34-13.194-34.02-31.183-55.02-39.582-46.13-18.448-39.297 26.587-25.563 43.515 15.374 18.95 32.75 36.202 49.124 54.303" transform="matrix(1 0 0 -1 137.327 99.849)"/>
                            </g>
                        </g>
                    </g>
                </g>
                <text fill="#FFF" fill-opacity=".87" font-family="Roboto-Medium, Roboto, sans-serif" font-size="16" font-weight="400" letter-spacing=".114" transform="translate(-8 -196) translate(16 200)">
                    <tspan x="18.819" y="96">NỘP, RÚT TIỀN MẶT</tspan>
                </text>
                <g filter="url(#xjsy3egedd)" transform="translate(-8 -196) translate(16 200)">
                    <g>
                        <path d="M0 0L48 0 48 48 0 48z" transform="translate(68 16)"/>
                        <path fill="#000" fill-rule="nonzero" d="M38 28V12c0-2.2-1.8-4-4-4H6c-2.2 0-4 1.8-4 4v16c0 2.2 1.8 4 4 4h28c2.2 0 4-1.8 4-4zm-18-2c-3.32 0-6-2.68-6-6s2.68-6 6-6 6 2.68 6 6-2.68 6-6 6zm26-12v22c0 2.2-1.8 4-4 4H8v-4h34V14h4z" transform="translate(68 16)"/>
                    </g>
                </g>
            </g>
        </g>
    </g>
</svg>
