<svg xmlns="http://www.w3.org/2000/svg" xmlns:xlink="http://www.w3.org/1999/xlink" width="199" height="176" viewBox="0 0 199 176">
    <defs>
        <filter id="cinqabsovb" width="114.2%" height="116.2%" x="-7.1%" y="-5.6%" filterUnits="objectBoundingBox">
            <feMorphology in="SourceAlpha" radius="1" result="shadowSpreadOuter1"/>
            <feOffset dy="4" in="shadowSpreadOuter1" result="shadowOffsetOuter1"/>
            <feGaussianBlur in="shadowOffsetOuter1" result="shadowBlurOuter1" stdDeviation="4"/>
            <feColorMatrix in="shadowBlurOuter1" result="shadowMatrixOuter1" values="0 0 0 0 0.0352941176 0 0 0 0 0.117647059 0 0 0 0 0.258823529 0 0 0 0.25 0"/>
            <feOffset in="SourceAlpha" result="shadowOffsetOuter2"/>
            <feGaussianBlur in="shadowOffsetOuter2" result="shadowBlurOuter2" stdDeviation=".5"/>
            <feColorMatrix in="shadowBlurOuter2" result="shadowMatrixOuter2" values="0 0 0 0 0.0352941176 0 0 0 0 0.117647059 0 0 0 0 0.258823529 0 0 0 0.31 0"/>
            <feMerge>
                <feMergeNode in="shadowMatrixOuter1"/>
                <feMergeNode in="shadowMatrixOuter2"/>
            </feMerge>
        </filter>
        <filter id="mxrld2aedd">
            <feColorMatrix in="SourceGraphic" values="0 0 0 0 1.000000 0 0 0 0 1.000000 0 0 0 0 1.000000 0 0 0 1.000000 0"/>
        </filter>
        <rect id="khfoqfh0ha" width="183" height="160" x="0" y=".13" rx="8"/>
    </defs>
    <g fill="none" fill-rule="evenodd">
        <g>
            <g>
                <g transform="translate(-207 -196) translate(215 199) translate(0 .87)">
                    <mask id="fmswsns0ec" fill="#fff">
                        <use xlink:href="#khfoqfh0ha"/>
                    </mask>
                    <g>
                        <use fill="#000" filter="url(#cinqabsovb)" xlink:href="#khfoqfh0ha"/>
                        <use fill="#18B7C7" xlink:href="#khfoqfh0ha"/>
                    </g>
                    <path fill="#0D8692" d="M124.263 2.13L71.615 43.251 136 29.438 114 67.844 167 52.13 160.187 60.031 199 43.251 199 -8z" mask="url(#fmswsns0ec)" opacity=".3"/>
                </g>
                <g filter="url(#mxrld2aedd)" transform="translate(-207 -196) translate(215 199)">
                    <g>
                        <path d="M0 0L48 0 48 48 0 48z" transform="translate(68 16)"/>
                        <path fill="#000" d="M24 4C12.96 4 4 12.96 4 24s8.96 20 20 20 20-8.96 20-20S35.04 4 24 4zm2.82 32.18V40h-5.34v-3.86c-3.42-.72-6.32-2.92-6.54-6.8h3.92c.2 2.1 1.64 3.74 5.3 3.74 3.92 0 4.8-1.96 4.8-3.18 0-1.66-.88-3.22-5.34-4.28-4.96-1.2-8.36-3.24-8.36-7.34 0-3.44 2.78-5.68 6.22-6.42V8h5.34v3.9c3.72.9 5.58 3.72 5.7 6.78H28.6c-.1-2.22-1.28-3.74-4.44-3.74-3 0-4.8 1.36-4.8 3.28 0 1.68 1.3 2.78 5.34 3.82s8.36 2.78 8.36 7.82c-.02 3.66-2.76 5.66-6.24 6.32z" transform="translate(68 16)"/>
                    </g>
                </g>
                <text fill="#FFF" fill-opacity=".87" font-family="Roboto-Medium, Roboto, sans-serif" font-size="16" font-weight="400" letter-spacing=".114" transform="translate(-207 -196) translate(215 199)">
                    <tspan x="26.73" y="97">CHUYỂN KHOẢN/ </tspan> <tspan x="40.182" y="121">THANH TOÁN </tspan>
                </text>
            </g>
        </g>
    </g>
</svg>
