<svg xmlns="http://www.w3.org/2000/svg" xmlns:xlink="http://www.w3.org/1999/xlink" width="199" height="176" viewBox="0 0 199 176">
    <defs>
        <filter id="woh24x5nnb" width="114.2%" height="116.2%" x="-7.1%" y="-5.6%" filterUnits="objectBoundingBox">
            <feMorphology in="SourceAlpha" radius="1" result="shadowSpreadOuter1"/>
            <feOffset dy="4" in="shadowSpreadOuter1" result="shadowOffsetOuter1"/>
            <feGaussianBlur in="shadowOffsetOuter1" result="shadowBlurOuter1" stdDeviation="4"/>
            <feColorMatrix in="shadowBlurOuter1" result="shadowMatrixOuter1" values="0 0 0 0 0.0352941176 0 0 0 0 0.117647059 0 0 0 0 0.258823529 0 0 0 0.25 0"/>
            <feOffset in="SourceAlpha" result="shadowOffsetOuter2"/>
            <feGaussianBlur in="shadowOffsetOuter2" result="shadowBlurOuter2" stdDeviation=".5"/>
            <feColorMatrix in="shadowBlurOuter2" result="shadowMatrixOuter2" values="0 0 0 0 0.0352941176 0 0 0 0 0.117647059 0 0 0 0 0.258823529 0 0 0 0.31 0"/>
            <feMerge>
                <feMergeNode in="shadowMatrixOuter1"/>
                <feMergeNode in="shadowMatrixOuter2"/>
            </feMerge>
        </filter>
        <filter id="1zyubcxhgd">
            <feColorMatrix in="SourceGraphic" values="0 0 0 0 1.000000 0 0 0 0 1.000000 0 0 0 0 1.000000 0 0 0 1.000000 0"/>
        </filter>
        <rect id="8lxjxo0bza" width="183" height="160" x="0" y="0" rx="8"/>
    </defs>
    <g fill="none" fill-rule="evenodd">
        <g>
            <g>
                <g transform="translate(-8 -373) translate(16 377)">
                    <mask id="fykr7b77tc" fill="#fff">
                        <use xlink:href="#8lxjxo0bza"/>
                    </mask>
                    <g>
                        <use fill="#000" filter="url(#woh24x5nnb)" xlink:href="#8lxjxo0bza"/>
                        <use fill="#03A659" xlink:href="#8lxjxo0bza"/>
                    </g>
                    <g mask="url(#fykr7b77tc)" opacity=".2">
                        <g>
                            <path stroke="#49CED9" stroke-width="3" d="M13.795.014c5.542.293 9.797 5.023 9.504 10.565-.292 5.542-5.022 9.798-10.564 9.505C7.193 19.79 2.937 15.06 3.23 9.519 3.523 3.977 8.253-.278 13.795.014z" transform="translate(142 30)"/>
                            <path fill="#49CED9" d="M10.579 9.661c5.542.293 9.798 5.023 9.505 10.565-.293 5.542-5.023 9.798-10.565 9.505-5.542-.293-9.798-5.023-9.505-10.565.293-5.542 5.023-9.797 10.565-9.505" transform="translate(142 30)"/>
                            <path fill="#FAD141" d="M36.43 24.928c2.661.14 4.704 2.411 4.563 5.071-.14 2.66-2.41 4.703-5.07 4.563-2.661-.14-4.704-2.411-4.563-5.071.14-2.66 2.41-4.703 5.07-4.563" transform="translate(142 30)"/>
                        </g>
                    </g>
                    <g mask="url(#fykr7b77tc)" opacity=".2">
                        <g>
                            <path stroke="#028547" stroke-width="3" d="M6.643 6.643L6.643 39.994 39.994 39.994 39.994 6.643z" transform="translate(0 1)"/>
                            <path fill="#028547" d="M0 33.351L33.351 33.351 33.351 0 0 0z" transform="translate(0 1)"/>
                        </g>
                    </g>
                </g>
                <g filter="url(#1zyubcxhgd)" transform="translate(-8 -373) translate(16 377)">
                    <g>
                        <path d="M0 0L48 0 48 48 0 48z" transform="translate(68 16)"/>
                        <path fill="#000" d="M30.98 19.26C30.62 13.68 28.36 8.24 24.12 4c-4.28 4.28-6.64 9.72-7.1 15.26 2.56 1.36 4.92 3.12 6.98 5.26 2.06-2.12 4.42-3.88 6.98-5.26zm-13 5.3c-.28-.2-.6-.38-.9-.58.3.22.62.38.9.58zm12.84-.5c-.26.18-.54.32-.8.52.26-.2.54-.34.8-.52zM24 30.9C19.7 24.34 12.36 20 4 20c0 10.64 6.72 19.64 16.06 22.98 1.26.46 2.58.8 3.94 1.02 1.36-.24 2.66-.58 3.94-1.02C37.28 39.64 44 30.64 44 20c-8.36 0-15.7 4.34-20 10.9z" transform="translate(68 16)"/>
                    </g>
                </g>
                <text fill="#FFF" fill-opacity=".87" font-family="Roboto-Medium, Roboto, sans-serif" font-size="16" font-weight="400" letter-spacing=".114" transform="translate(-8 -373) translate(16 377)">
                    <tspan x="33.656" y="95">CÁC GIAO DỊCH </tspan> <tspan x="24.973" y="119">KHÔNG TIỀN MẶT</tspan>
                </text>
            </g>
        </g>
    </g>
</svg>
