<svg xmlns="http://www.w3.org/2000/svg" xmlns:xlink="http://www.w3.org/1999/xlink" width="199" height="176" viewBox="0 0 199 176">
    <defs>
        <filter id="q8qt8tch8b" width="114.2%" height="116.2%" x="-7.1%" y="-5.6%" filterUnits="objectBoundingBox">
            <feMorphology in="SourceAlpha" radius="1" result="shadowSpreadOuter1"/>
            <feOffset dy="4" in="shadowSpreadOuter1" result="shadowOffsetOuter1"/>
            <feGaussianBlur in="shadowOffsetOuter1" result="shadowBlurOuter1" stdDeviation="4"/>
            <feColorMatrix in="shadowBlurOuter1" result="shadowMatrixOuter1" values="0 0 0 0 0.0352941176 0 0 0 0 0.117647059 0 0 0 0 0.258823529 0 0 0 0.25 0"/>
            <feOffset in="SourceAlpha" result="shadowOffsetOuter2"/>
            <feGaussianBlur in="shadowOffsetOuter2" result="shadowBlurOuter2" stdDeviation=".5"/>
            <feColorMatrix in="shadowBlurOuter2" result="shadowMatrixOuter2" values="0 0 0 0 0.0352941176 0 0 0 0 0.117647059 0 0 0 0 0.258823529 0 0 0 0.31 0"/>
            <feMerge>
                <feMergeNode in="shadowMatrixOuter1"/>
                <feMergeNode in="shadowMatrixOuter2"/>
            </feMerge>
        </filter>
        <filter id="eqxlqspp0d">
            <feColorMatrix in="SourceGraphic" values="0 0 0 0 1.000000 0 0 0 0 1.000000 0 0 0 0 1.000000 0 0 0 1.000000 0"/>
        </filter>
        <rect id="vuupc2ggqa" width="183" height="160" x="0" y="0" rx="8"/>
    </defs>
    <g fill="none" fill-rule="evenodd">
        <g>
            <g>
                <g transform="translate(-8 -549) translate(16 553)">
                    <mask id="iiwk7dh7yc" fill="#fff">
                        <use xlink:href="#vuupc2ggqa"/>
                    </mask>
                    <g>
                        <use fill="#000" filter="url(#q8qt8tch8b)" xlink:href="#vuupc2ggqa"/>
                        <use fill="#01532C" xlink:href="#vuupc2ggqa"/>
                    </g>
                    <g mask="url(#iiwk7dh7yc)" opacity=".2">
                        <g>
                            <path stroke="#49CED9" stroke-width="3" d="M13.795.014c5.542.293 9.797 5.023 9.504 10.565-.292 5.542-5.022 9.798-10.564 9.505C7.193 19.79 2.937 15.06 3.23 9.519 3.523 3.977 8.253-.278 13.795.014z" transform="translate(142 30)"/>
                            <path fill="#49CED9" d="M10.579 9.661c5.542.293 9.798 5.023 9.505 10.565-.293 5.542-5.023 9.798-10.565 9.505-5.542-.293-9.798-5.023-9.505-10.565.293-5.542 5.023-9.797 10.565-9.505" transform="translate(142 30)"/>
                            <path fill="#FAD141" d="M36.43 24.928c2.661.14 4.704 2.411 4.563 5.071-.14 2.66-2.41 4.703-5.07 4.563-2.661-.14-4.704-2.411-4.563-5.071.14-2.66 2.41-4.703 5.07-4.563" transform="translate(142 30)"/>
                        </g>
                    </g>
                    <g mask="url(#iiwk7dh7yc)" opacity=".2">
                        <g>
                            <path stroke="#028547" stroke-width="3" d="M6.643 6.643L6.643 39.994 39.994 39.994 39.994 6.643z" transform="translate(0 1)"/>
                            <path fill="#028547" d="M0 33.351L33.351 33.351 33.351 0 0 0z" transform="translate(0 1)"/>
                        </g>
                    </g>
                </g>
                <g filter="url(#eqxlqspp0d)" transform="translate(-8 -549) translate(16 553)">
                    <g>
                        <path d="M0 0L48 0 48 48 0 48z" transform="translate(68 16)"/>
                        <path fill="#000" d="M20 32v-2H6.02L6 38c0 2.22 1.78 4 4 4h28c2.22 0 4-1.78 4-4v-8H28v2h-8zm20-18h-8.02v-4l-4-4h-8l-4 4v4H8c-2.2 0-4 1.8-4 4v6c0 2.22 1.78 4 4 4h12v-4h8v4h12c2.2 0 4-1.8 4-4v-6c0-2.2-1.8-4-4-4zm-12 0h-8v-4h8v4z" transform="translate(68 16)"/>
                    </g>
                </g>
                <text fill="#FFF" fill-opacity=".87" font-family="Roboto-Medium, Roboto, sans-serif" font-size="16" font-weight="400" letter-spacing=".114" transform="translate(-8 -549) translate(16 553)">
                    <tspan x="53.329" y="95">TIẾT KIỆM</tspan>
                </text>
            </g>
        </g>
    </g>
</svg>
