<?xml version="1.0" encoding="utf-8"?>
<!-- Generator: Adobe Illustrator 25.1.0, SVG Export Plug-In . SVG Version: 6.00 Build 0)  -->
<svg version="1.1" id="Layer_1" xmlns="http://www.w3.org/2000/svg" xmlns:xlink="http://www.w3.org/1999/xlink" x="0px" y="0px"
	 viewBox="0 0 504 482.7" style="enable-background:new 0 0 504 482.7;" xml:space="preserve">
<path d="M499.6,272.7l-16-39.3l13.7-40.2c0.4-1.1,0.1-2.2-0.6-3l-57.5-65.8l-32.9-80.9c-0.4-1-1.4-1.8-2.5-1.9l-42-5.8L334,3.9
	c-0.7-0.8-1.9-1.2-2.9-1l-85.7,16.9l-86.5-12c-1.1-0.1-2.2,0.3-2.9,1.2l-26,33.5l-41.6,8.2c-1.1,0.2-2,1-2.3,2l-28.2,82.6l-53.6,69
	c-0.7,0.9-0.8,2.1-0.4,3.1l16,39.3L5.9,286.8c-0.4,1.1-0.1,2.2,0.6,3L64,355.7l32.9,80.9c0.4,1,1.4,1.8,2.5,1.9l42,5.8l27.9,32
	c0.6,0.7,1.5,1.1,2.3,1.1c0.2,0,0.4,0,0.6-0.1l85.7-16.9l86.5,12c0.1,0,0.3,0,0.4,0c1,0,1.9-0.4,2.5-1.2l26-33.5l41.6-8.2
	c1.1-0.2,2-1,2.3-2l28.2-82.6l53.6-69C499.9,274.9,500.1,273.8,499.6,272.7z M490.9,193l-10.8,31.7l-33.6-82.5L490.9,193z
	 M477,233.6l-37,108.2L369.9,432l-112.1,22.1l-113.2-15.6l-75.2-86.1L26.3,246.5l37-108.2l70.2-90.2L245.6,26l113.2,15.6l75.2,86.1
	L477,233.6z M401.3,47.5l25.4,62.5L368.2,43L401.3,47.5z M330.5,9.3l22,25.2l-88.3-12.2L330.5,9.3z M159.8,14.2l66.9,9.2l-87.4,17.2
	L159.8,14.2z M91.2,56.4l32.9-6.5l-54.7,70.3L91.2,56.4z M10.1,206.7l41.4-53.3l-28.8,84.3L10.1,206.7z M12.4,287.1l10.8-31.7
	L56.8,338L12.4,287.1z M102,432.6L76.5,370l58.6,67.1L102,432.6z M172.8,470.8l-22-25.2l88.3,12.2L172.8,470.8z M343.5,465.9
	l-66.9-9.2l87.4-17.2L343.5,465.9z M412.1,423.7l-32.9,6.5l54.7-70.3L412.1,423.7z M451.8,326.7l28.8-84.3l12.6,31L451.8,326.7z"/>
</svg>
